<svg width="53" height="40" fill="none" xmlns="http://www.w3.org/2000/svg"><path d="M45.121 32.935c0 2.86-1.77 5.2-3.981 5.2-2.212 0-3.982-2.34-3.982-5.2 0-2.86 1.77-5.2 3.982-5.2s3.981 2.34 3.981 5.2zm-31.761 0c0 2.86-1.77 5.2-3.982 5.2-2.211 0-3.98-2.34-3.98-5.2 0-2.86 1.769-5.2 3.98-5.2 2.212 0 3.982 2.34 3.982 5.2z" fill="#FECC00"/><path d="M50.315 16.467h-5.308l-7.344-7.973C37.31 8.06 36.69 7.8 36.16 7.8h-9.732V3.38c0-1.387-1.15-2.514-2.566-2.514H5.105c-1.416 0-2.566 1.127-2.566 2.514v19.154h23.888v10.401h9.732c0-2.86 2.389-5.2 5.309-5.2 2.92 0 5.308 2.34 5.308 5.2h3.274c.619 0 1.15-.52 1.15-1.127V18.114c0-.52-.531-1.3-.885-1.647z" fill="#fff"/><path d="M28.312 23.401H0V3.381C0 1.472 1.504 0 3.45 0h21.5a3.345 3.345 0 013.362 3.38v20.021zM1.77 21.668h24.772V3.38c0-.866-.708-1.647-1.68-1.647H3.45c-.973 0-1.68.694-1.68 1.647v18.288zm40.697 17.334c-3.45 0-6.193-2.687-6.193-6.067 0-3.38 2.743-6.067 6.193-6.067 3.45 0 6.194 2.687 6.194 6.067 0 3.38-2.743 6.067-6.194 6.067zm0-10.4c-2.477 0-4.423 1.906-4.423 4.333 0 2.427 1.946 4.334 4.423 4.334 2.478 0 4.424-1.907 4.424-4.334 0-2.427-1.946-4.334-4.424-4.334zm-31.85 10.4c-3.45 0-6.193-2.687-6.193-6.067 0-3.38 2.743-6.067 6.193-6.067 3.45 0 6.193 2.687 6.193 6.067 0 3.38-2.742 6.067-6.193 6.067zm0-10.4c-2.477 0-4.424 1.906-4.424 4.333 0 2.427 1.947 4.334 4.424 4.334 2.478 0 4.424-1.907 4.424-4.334 0-2.427-1.947-4.334-4.424-4.334zm41.141-5.201h-15.04c-.532 0-.885-.346-.885-.866s.354-.867.884-.867h15.041c.53 0 .885.347.885.867s-.354.866-.885.866z" fill="#fff"/><path d="M14.156 15.6H.885c-.531 0-.885-.346-.885-.866s.354-.867.885-.867h13.27c.532 0 .886.347.886.867s-.354.867-.885.867zm-3.539-4.333H.885C.354 11.267 0 10.92 0 10.4s.354-.866.885-.866h9.732c.53 0 .885.346.885.866s-.354.867-.885.867zm37.636 22.535h-3.362v-.867c0-2.427-1.946-4.333-4.424-4.333-2.477 0-4.423 1.906-4.423 4.333v.867H24.541V6.934h10.882c1.239 0 2.3.52 3.097 1.473l5.84 7.194.088.087h3.716c1.592 0 2.83 1.3 2.83 2.773v12.567c.09 1.474-1.238 2.774-2.742 2.774zm-1.681-1.733h1.593c.619 0 1.061-.52 1.061-1.127v-12.48c0-.608-.53-1.041-1.061-1.041h-3.716c-.62 0-1.15-.26-1.504-.693l-5.84-7.194c-.354-.607-.973-.867-1.68-.867h-9.113v23.401h8.05c.443-2.946 3.009-5.2 6.105-5.2 3.097 0 5.663 2.254 6.105 5.2z" fill="#fff"/><path d="M28.312 33.802H15.04v-.867c0-2.426-1.947-4.333-4.424-4.333-2.477 0-4.424 1.907-4.424 4.333v.867H2.654C1.15 33.802 0 32.675 0 31.202v-9.534h28.312v12.134zm-11.59-1.733h9.82V23.4H1.77v7.8c0 .52.353.867.884.867h1.858c.443-2.946 3.008-5.2 6.105-5.2 3.096 0 5.662 2.254 6.105 5.2z" fill="#fff"/><path d="M12.386 32.935c0 .953-.796 1.733-1.77 1.733-.972 0-1.769-.78-1.769-1.733 0-.953.797-1.734 1.77-1.734s1.77.78 1.77 1.734zm31.851 0c0 .953-.796 1.733-1.77 1.733-.972 0-1.769-.78-1.769-1.733 0-.953.797-1.734 1.77-1.734s1.77.78 1.77 1.734zm1.505-18.201H34.24c-1.327 0-2.388-1.04-2.388-2.34v-5.46h5.573c1.24 0 2.3.52 3.097 1.473l5.22 6.327zm-12.12-6.067v3.727c0 .347.264.607.618.607h7.875l-2.92-3.554c-.443-.52-1.062-.78-1.77-.78h-3.804z" fill="#fff"/></svg>